<svg xmlns="http://www.w3.org/2000/svg" viewBox="0 0 900 520" role="img" aria-labelledby="title desc">
  <title id="title">Prize podium with trophy and confetti</title>
  <desc id="desc">A gold trophy on a winners podium with ribbons, medals and colorful confetti.</desc>
  <defs>
    <linearGradient id="bg" x1="70" y1="36" x2="814" y2="486" gradientUnits="userSpaceOnUse">
      <stop offset="0" stop-color="#f7fbff"/>
      <stop offset="0.58" stop-color="#eef6f7"/>
      <stop offset="1" stop-color="#fff4e8"/>
    </linearGradient>
    <linearGradient id="gold" x1="344" y1="122" x2="548" y2="358" gradientUnits="userSpaceOnUse">
      <stop offset="0" stop-color="#ffe39a"/>
      <stop offset="0.38" stop-color="#efb33b"/>
      <stop offset="1" stop-color="#d87600"/>
    </linearGradient>
    <linearGradient id="blue" x1="214" y1="360" x2="698" y2="490" gradientUnits="userSpaceOnUse">
      <stop offset="0" stop-color="#003d7c"/>
      <stop offset="1" stop-color="#006a9f"/>
    </linearGradient>
    <filter id="shadow" x="-20%" y="-20%" width="140%" height="150%">
      <feDropShadow dx="0" dy="18" stdDeviation="18" flood-color="#003d7c" flood-opacity="0.18"/>
    </filter>
  </defs>

  <rect width="900" height="520" rx="0" fill="url(#bg)"/>
  <circle cx="744" cy="92" r="88" fill="#ef7c00" opacity="0.10"/>
  <circle cx="152" cy="124" r="118" fill="#003d7c" opacity="0.07"/>
  <circle cx="774" cy="358" r="132" fill="#007a53" opacity="0.08"/>

  <g opacity="0.9">
    <rect x="94" y="82" width="44" height="12" rx="6" fill="#ef7c00" transform="rotate(-18 116 88)"/>
    <rect x="182" y="64" width="34" height="10" rx="5" fill="#003d7c" transform="rotate(22 199 69)"/>
    <rect x="694" y="70" width="52" height="12" rx="6" fill="#007a53" transform="rotate(18 720 76)"/>
    <rect x="764" y="158" width="28" height="10" rx="5" fill="#ef7c00" transform="rotate(-28 778 163)"/>
    <rect x="110" y="286" width="30" height="10" rx="5" fill="#007a53" transform="rotate(28 125 291)"/>
    <rect x="240" y="116" width="24" height="24" rx="5" fill="#ef7c00" opacity="0.72"/>
    <rect x="632" y="126" width="18" height="18" rx="4" fill="#003d7c" opacity="0.78"/>
    <path d="M768 259l16 9-13 12z" fill="#003d7c"/>
    <path d="M137 184l16 9-13 12z" fill="#ef7c00"/>
  </g>

  <g filter="url(#shadow)">
    <path d="M221 428h458c28 0 51 23 51 51v11H170v-11c0-28 23-51 51-51z" fill="url(#blue)"/>
    <path d="M318 340h264c28 0 51 23 51 51v99H267v-99c0-28 23-51 51-51z" fill="#f8fbff"/>
    <path d="M318 340h264c28 0 51 23 51 51v27H267v-27c0-28 23-51 51-51z" fill="#003d7c"/>
    <path d="M385 266h130c25 0 45 20 45 45v179H340V311c0-25 20-45 45-45z" fill="#fff"/>
    <path d="M385 266h130c25 0 45 20 45 45v33H340v-33c0-25 20-45 45-45z" fill="#ef7c00"/>
  </g>

  <g filter="url(#shadow)">
    <path d="M377 148c-16 0-31 8-39 22-8 13-8 30 0 44 9 16 27 28 53 33l5-30c-17-4-25-10-30-18-3-5-3-10 0-15 2-4 6-6 11-6h10v-30z" fill="#e59a16"/>
    <path d="M523 148c16 0 31 8 39 22 8 13 8 30 0 44-9 16-27 28-53 33l-5-30c17-4 25-10 30-18 3-5 3-10 0-15-2-4-6-6-11-6h-10v-30z" fill="#e59a16"/>
    <path d="M382 132h136v53c0 59-30 99-68 99s-68-40-68-99v-53z" fill="url(#gold)"/>
    <path d="M371 118h158v30H371z" fill="#ffd87a"/>
    <path d="M421 278h58v48h-58z" fill="#d87600"/>
    <path d="M390 326h120c8 0 15 7 15 15v16H375v-16c0-8 7-15 15-15z" fill="#ffc857"/>
    <path d="M414 151h72v18c0 34-15 61-36 75-21-14-36-41-36-75v-18z" fill="#fff7d2" opacity="0.34"/>
  </g>

  <g>
    <circle cx="319" cy="397" r="34" fill="#ffc857"/>
    <circle cx="319" cy="397" r="24" fill="#f7fbff" opacity="0.32"/>
    <path d="M304 430l-24 42 25-8 8 25 23-42z" fill="#003d7c"/>
    <path d="M334 430l24 42-25-8-8 25-23-42z" fill="#006a9f"/>

    <circle cx="583" cy="397" r="34" fill="#ffc857"/>
    <circle cx="583" cy="397" r="24" fill="#f7fbff" opacity="0.32"/>
    <path d="M568 430l-24 42 25-8 8 25 23-42z" fill="#ef7c00"/>
    <path d="M598 430l24 42-25-8-8 25-23-42z" fill="#d87600"/>
  </g>

  <g opacity="0.72">
    <path d="M201 354c36-54 84-87 145-101" fill="none" stroke="#003d7c" stroke-width="9" stroke-linecap="round"/>
    <path d="M699 354c-36-54-84-87-145-101" fill="none" stroke="#007a53" stroke-width="9" stroke-linecap="round"/>
    <circle cx="199" cy="354" r="9" fill="#003d7c"/>
    <circle cx="701" cy="354" r="9" fill="#007a53"/>
  </g>
</svg>
